<svg width="40" height="40" viewBox="0 0 24 24" fill="white" xmlns="http://www.w3.org/2000/svg"><rect width="24" height="24" rx="5" fill="#181717"/><path fill="white" d="M12 2C6.48 2 2 6.58 2 12.26c0 4.5 2.87 8.32 6.84 9.67.5.09.68-.22.68-.49 0-.24-.01-.87-.01-1.7-2.78.62-3.37-1.36-3.37-1.36-.46-1.2-1.12-1.52-1.12-1.52-.91-.64.07-.63.07-.63 1.01.07 1.54 1.05 1.54 1.05 .9 1.57 2.36 1.12 2.94.86.09-.66.36-1.12.66-1.38-2.22-.26-4.56-1.14-4.56-5.07 0-1.12.39-2.04 1.03-2.76-.1-.26-.45-1.3.1-2.71 0 0 .84-.28 2.75 1.05A9.38 9.38 0 0 1 12 7.86c.85.004 1.71.11 2.51.32 1.9-1.33 2.74-1.05 2.74-1.05 .55 1.41.2 2.45.1 2.71.64.72 1.03 1.64 1.03 2.76 0 3.94-2.34 4.81-4.57 5.07 .37.33.7.98.7 1.98 0 1.43-.01 2.58-.01 2.93 0 .27.18.59.69.49C19.14 20.58 22 16.76 22 12.26 22 6.58 17.52 2 12 2Z"/></svg>