<svg width="40" height="40" viewBox="0 0 24 24" fill="white" xmlns="http://www.w3.org/2000/svg"><rect width="24" height="24" rx="5" fill="#0077B5"/><path d="M6.94 8.37C7.79 8.37 8.47 7.69 8.47 6.84C8.47 6 7.79 5.32 6.94 5.32C6.1 5.32 5.41 6 5.41 6.84C5.41 7.69 6.1 8.37 6.94 8.37ZM8.13 9.63H5.75V18.68H8.13V9.63ZM12.35 12.59C13.37 12.59 13.85 13.31 13.85 14.08V18.68H16.23V13.74C16.23 11.66 15.06 10.64 13.47 10.64C12.41 10.64 11.83 11.18 11.56 11.61H11.53V9.63H9.15C9.18 10.18 9.15 18.68 9.15 18.68H11.53V14.31C11.53 13.76 11.59 13.21 12.35 13.21V12.59Z" fill="white"/></svg>