<svg width="40" height="40" viewBox="0 0 24 24" fill="white" xmlns="http://www.w3.org/2000/svg"><rect width="24" height="24" rx="5" fill="#25D366"/><path d="M17.472 14.382c-.297-.149-1.758-.867-2.031-.967-.273-.099-.472-.148-.672.15-.198.297-.768.966-.941 1.164-.173.198-.347.223-.644.075-.297-.149-1.255-.461-2.39-1.467-.883-.788-1.48-1.761-1.653-2.059-.173-.297-.018-.458.13-.606.134-.133.298-.347.447-.52.149-.174.199-.298.298-.497.099-.198.05-.372-.025-.521-.075-.149-.672-1.62-.92-2.222-.242-.583-.487-.504-.672-.513-.173-.008-.372-.01-.571-.01-.198 0-.521.075-.793.372-.272.297-1.04 1.017-1.04 2.479 0 1.461 1.065 2.875 1.214 3.072.149.198 2.098 3.205 5.076 4.364.71.305 1.262.487 1.694.623.712.227 1.36.195 1.872.118.572-.085 1.758-.719 2.007-1.413.248-.694.248-1.289.173-1.413-.074-.124-.272-.198-.57-.347z" fill="white"/></svg>